<svg width="60" height="53" viewBox="0 0 60 53" fill="none" xmlns="http://www.w3.org/2000/svg">
<path d="M3.90022 9.70522C6.48525 5.35148 10.2948 2.13152 15.2381 0L15.6463 0.725626C13.1519 2.13152 11.0658 3.76417 9.38775 5.66894C7.70974 7.5737 6.39456 10.1134 5.39682 13.3787C4.39909 16.644 3.94557 20.771 3.94557 25.7596C3.94557 32.9705 5.03401 38.5034 7.16553 42.449C9.29705 46.3946 12.1542 49.3424 15.6463 51.3832L15.2381 52.1542C10.5669 50.068 6.89341 46.712 4.12697 42.0862C1.36053 37.4603 0 32.0181 0 25.7596C0 19.3651 1.31518 14.0136 3.90022 9.70522Z" fill="white"/>
<path d="M46.5307 36.6439C46.5307 39.1382 45.8504 41.3151 44.5352 43.2652C43.22 45.1699 41.2699 46.6665 38.7756 47.755C36.2812 48.8434 33.3334 49.3423 29.9774 49.3423C26.6214 49.3423 23.6735 48.7981 21.1792 47.755C18.6848 46.6665 16.7801 45.2153 15.4195 43.2652C14.1044 41.3604 13.4241 39.1382 13.4241 36.6439C13.4241 33.6507 14.3765 31.1563 16.2359 29.1609C18.0953 27.1654 20.5443 25.8502 23.5375 25.2153C20.9524 24.6711 18.8663 23.4919 17.1883 21.6325C15.5102 19.7731 14.6939 17.5055 14.6939 14.8751C14.6939 12.4715 15.3288 10.3853 16.5533 8.52594C17.7778 6.66653 19.5919 5.26063 21.8595 4.2629C24.1724 3.21982 26.8481 2.72095 29.8867 2.72095C32.9252 2.72095 35.6009 3.21982 37.9139 4.2629C40.2268 5.30599 41.9955 6.71188 43.22 8.52594C44.4445 10.34 45.0794 12.4715 45.0794 14.8751C45.0794 17.5055 44.2631 19.7278 42.5851 21.6325C40.9071 23.5373 38.8209 24.7164 36.2359 25.2153C39.2291 25.8048 41.6781 27.12 43.5375 29.1155C45.6236 31.111 46.5307 33.6053 46.5307 36.6439ZM41.0431 36.4625C41.0431 34.8298 40.5443 33.3785 39.5919 32.0634C38.6395 30.7482 37.3243 29.7504 35.6463 28.9795C33.9683 28.2538 32.0635 27.891 29.9774 27.891C27.8912 27.891 25.9864 28.2538 24.3084 28.9795C22.6304 29.7051 21.3152 30.7482 20.3629 32.0634C19.4105 33.3785 18.9116 34.8298 18.9116 36.4625C18.9116 38.9114 19.9547 40.9069 22.0409 42.4942C24.127 44.0815 26.7574 44.8525 29.932 44.8525C33.152 44.8525 35.7824 44.0815 37.8685 42.4942C40.0454 40.9069 41.0431 38.9114 41.0431 36.4625ZM30.0227 22.5395C32.8799 22.5395 35.2381 21.8139 37.0976 20.408C38.9116 19.0021 39.864 17.1427 39.864 14.8751C39.864 12.6529 38.957 10.8389 37.0976 9.43297C35.2835 8.02707 32.9252 7.30145 30.0227 7.30145C27.1656 7.30145 24.8073 8.02707 22.9479 9.43297C21.1338 10.8389 20.1815 12.6529 20.1815 14.8751C20.1815 17.1427 21.0885 19.0021 22.9479 20.408C24.8073 21.8139 27.1202 22.5395 30.0227 22.5395Z" fill="white"/>
<path d="M60 26.5306C60 32.7892 58.6395 38.2313 55.873 42.8572C53.1066 47.483 49.4331 50.839 44.7619 52.9252L44.3538 52.1542C47.8912 50.1588 50.703 47.1656 52.8345 43.22C54.966 39.2744 56.0544 33.6962 56.0544 26.5306C56.0544 21.542 55.5556 17.3696 54.6032 14.1497C53.6055 10.8844 52.2903 8.34469 50.6123 6.43993C48.9343 4.53517 46.8481 2.90252 44.3538 1.49662L44.7619 0.770996C49.7506 2.90252 53.5148 6.12247 56.0998 10.4762C58.7302 14.83 60 20.1814 60 26.5306Z" fill="white"/>
</svg>
