<svg width="278" height="104" viewBox="0 0 278 104" fill="none" xmlns="http://www.w3.org/2000/svg">
<g clip-path="url(#clip0_107_16174)">
<path d="M0.512115 19.2621V13.9889H7.02318V3.88184H12.8026V13.9889H21.8742V19.2621H12.8026V40.5015C12.8026 42.0396 13.0953 43.0649 13.6805 43.7241C14.2658 44.3833 15.29 44.6762 16.7532 44.6762H23.0448V49.9494H16.3874C13.0221 49.9494 10.6079 49.217 9.14475 47.679C7.68159 46.141 7.02318 43.7973 7.02318 40.5748V19.2621H0.512115Z" fill="white"/>
<path d="M59.3311 29.9549V50.0225H53.5516V30.3211C53.5516 26.5859 52.6737 23.7296 50.9911 21.8254C49.3084 19.8479 46.8942 18.8958 43.7484 18.8958C40.3831 18.8958 37.7495 20.0676 35.8474 22.4113C33.8721 24.755 32.9211 27.9775 32.9211 32.0057V50.0225H27.0684V0.585938H32.8479V19.9211C34.0184 18.0169 35.5547 16.4789 37.53 15.3071C39.5053 14.1352 41.8463 13.5493 44.6995 13.5493C49.0889 13.5493 52.6005 14.8676 55.3074 17.5042C57.9411 20.1409 59.3311 24.3155 59.3311 29.9549Z" fill="white"/>
<path d="M71.8411 15.8925C74.4016 14.3545 77.4011 13.6221 80.6932 13.6221C83.9853 13.6221 86.9116 14.2812 89.4721 15.6728C92.0326 17.0643 94.0079 19.0418 95.4711 21.6052C96.9342 24.1685 97.739 27.2446 97.8121 30.6869C97.8121 31.1995 97.739 32.0052 97.6658 33.177H69.7195V33.6897C69.7926 37.2052 70.89 40.0615 72.9384 42.1855C74.9869 44.3094 77.6937 45.3347 81.059 45.3347C83.6195 45.3347 85.8142 44.6756 87.6432 43.3573C89.4721 42.039 90.6426 40.2812 91.3011 37.9376H97.1537C96.4221 41.5995 94.6663 44.6024 91.8863 46.946C89.0332 49.2897 85.5948 50.4615 81.4979 50.4615C77.9132 50.4615 74.7674 49.7291 72.1337 48.1911C69.4269 46.653 67.3784 44.5291 65.9153 41.6728C64.4521 38.8164 63.7206 35.6671 63.7206 32.0052C63.7206 28.3432 64.4521 25.1207 65.8421 22.3376C67.2321 19.5545 69.2806 17.4305 71.8411 15.8925ZM88.3747 21.239C86.3995 19.5545 83.839 18.6756 80.7663 18.6756C78.0595 18.6756 75.6453 19.5545 73.5969 21.3855C71.5484 23.1432 70.3779 25.4869 70.0853 28.3432H91.8132C91.5205 25.2671 90.4232 22.9235 88.3747 21.239Z" fill="white"/>
<path d="M107.323 13.7691C110.103 9.08182 114.199 5.56632 119.54 3.2959L119.979 4.10154C117.272 5.63956 115.077 7.3973 113.248 9.44801C111.419 11.4987 110.029 14.2818 108.932 17.7973C107.908 21.3128 107.323 25.7804 107.323 31.2001C107.323 38.9635 108.493 44.9691 110.761 49.217C113.029 53.4649 116.102 56.6874 119.906 58.8846L119.467 59.7635C114.419 57.4931 110.468 53.9043 107.469 48.9241C104.543 43.9438 103.006 38.0846 103.006 31.2734C103.079 24.2424 104.543 18.4565 107.323 13.7691Z" fill="white"/>
<path d="M122.393 15.8925C124.954 14.3545 127.953 13.6221 131.245 13.6221C134.537 13.6221 137.464 14.2812 140.024 15.6728C142.585 17.0643 144.56 19.0418 146.023 21.6052C147.486 24.1685 148.291 27.2446 148.364 30.6869C148.364 31.1995 148.291 32.0052 148.218 33.177H120.272V33.6897C120.345 37.2052 121.442 40.0615 123.491 42.1855C125.539 44.3094 128.246 45.3347 131.611 45.3347C134.172 45.3347 136.366 44.6756 138.195 43.3573C140.024 42.039 141.195 40.2812 141.853 37.9376H147.706C146.974 41.5995 145.218 44.6024 142.438 46.946C139.585 49.2897 136.147 50.4615 132.05 50.4615C128.465 50.4615 125.319 49.7291 122.686 48.1911C119.979 46.653 117.931 44.5291 116.467 41.6728C115.004 38.8897 114.273 35.6671 114.273 32.0052C114.273 28.3432 115.004 25.1207 116.394 22.3376C117.784 19.5545 119.759 17.4305 122.393 15.8925ZM138.927 21.239C136.952 19.5545 134.391 18.6756 131.318 18.6756C128.612 18.6756 126.197 19.5545 124.149 21.3855C122.101 23.1432 120.93 25.4869 120.637 28.3432H142.365C142.073 25.2671 140.902 22.9235 138.927 21.239Z" fill="white"/>
<path d="M159.85 3.80845C159.85 4.90704 159.484 5.78591 158.826 6.5183C158.094 7.2507 157.216 7.54366 156.119 7.54366C155.022 7.54366 154.144 7.17746 153.412 6.5183C152.681 5.78591 152.388 4.90704 152.388 3.80845C152.388 2.70986 152.754 1.83098 153.412 1.09859C154.144 0.366195 155.022 0.0732422 156.119 0.0732422C157.216 0.0732422 158.094 0.439435 158.826 1.09859C159.484 1.83098 159.85 2.78309 159.85 3.80845ZM158.972 13.9887V50.0225H153.193V13.9887H158.972Z" fill="white"/>
<path d="M198.989 50.5348C198.989 53.2446 198.258 55.5883 196.868 57.639C195.405 59.6897 193.356 61.3009 190.649 62.4728C187.943 63.6446 184.797 64.2305 181.139 64.2305C177.554 64.2305 174.335 63.6446 171.628 62.4728C168.922 61.3009 166.873 59.6897 165.41 57.639C163.947 55.5883 163.288 53.1714 163.288 50.5348C163.288 47.3122 164.313 44.6024 166.288 42.4784C168.336 40.3545 170.97 38.8897 174.189 38.2305C171.409 37.6446 169.141 36.3995 167.312 34.3488C165.483 32.2981 164.605 29.8812 164.605 27.0249C164.605 24.4615 165.264 22.1179 166.581 20.1404C167.897 18.1629 169.873 16.6249 172.36 15.5263C174.847 14.4277 177.774 13.8418 181.066 13.8418C192.991 13.8418 197.526 21.9714 197.526 26.9517C197.526 33.47 190.796 37.5714 188.016 38.0841C191.235 38.7432 193.868 40.1348 195.917 42.2587C197.965 44.5291 198.989 47.239 198.989 50.5348ZM193.064 50.315C193.064 48.5573 192.552 47.0193 191.527 45.5545C190.503 44.1629 189.04 43.0643 187.284 42.2587C185.455 41.4531 183.407 41.0869 181.212 41.0869C178.944 41.0869 176.896 41.4531 175.14 42.2587C173.311 43.0643 171.921 44.1629 170.897 45.5545C169.873 46.946 169.361 48.5573 169.361 50.315C169.361 52.9517 170.458 55.1488 172.726 56.8334C174.994 58.5179 177.847 59.3967 181.285 59.3967C184.797 59.3967 187.65 58.5179 189.845 56.8334C191.893 55.1488 193.064 52.9517 193.064 50.315ZM181.139 35.301C184.212 35.301 186.772 34.5686 188.747 33.0305C190.723 31.4925 191.674 29.515 191.674 27.0981C191.674 24.6812 190.723 22.7038 188.747 21.1657C186.772 19.6277 184.212 18.8953 181.139 18.8953C178.066 18.8953 175.506 19.6277 173.531 21.1657C171.555 22.7038 170.531 24.6812 170.531 27.0981C170.531 29.515 171.555 31.5657 173.531 33.0305C175.433 34.4953 177.993 35.301 181.139 35.301Z" fill="white"/>
<path d="M235.495 29.9549V50.0225H229.716V30.3211C229.716 26.5859 228.838 23.7296 227.155 21.8254C225.473 19.8479 223.058 18.8958 219.913 18.8958C216.547 18.8958 213.914 20.0676 212.012 22.4113C210.036 24.755 209.085 27.9775 209.085 32.0057V50.0225H203.306V0.585938H209.085V19.9211C210.256 18.0169 211.792 16.4789 213.767 15.3071C215.743 14.1352 218.084 13.5493 220.937 13.5493C225.326 13.5493 228.838 14.8676 231.545 17.5042C234.105 20.1409 235.495 24.3155 235.495 29.9549Z" fill="white"/>
<path d="M238.275 19.2621V13.9889H244.786V3.88184H250.566V13.9889H259.637V19.2621H250.566V40.5015C250.566 42.0396 250.858 43.0649 251.444 43.7241C252.029 44.3833 253.053 44.6762 254.516 44.6762H260.808V49.9494H254.151C250.785 49.9494 248.371 49.217 246.908 47.679C245.445 46.141 244.786 43.7973 244.786 40.5748V19.2621H238.275Z" fill="white"/>
<path d="M277.415 32.0058C277.415 38.8171 275.952 44.6762 272.952 49.6565C270.026 54.6368 266.002 58.2987 260.954 60.4959L260.515 59.617C264.319 57.4199 267.392 54.2706 269.66 49.9495C271.928 45.7016 273.098 39.6959 273.098 31.9325C273.098 26.5128 272.586 22.0452 271.489 18.5297C270.465 15.0142 269.002 12.2311 267.173 10.1804C265.344 8.12972 263.149 6.37199 260.442 4.83396L260.881 4.02832C266.222 6.29874 270.318 9.81424 273.098 14.5016C276.025 19.3354 277.415 25.1213 277.415 32.0058Z" fill="white"/>
<path d="M57.5021 72.2139L64.8179 92.7209L72.1337 72.2139H75.2063L66.5737 96.2364H62.989L54.3563 72.2139H57.5021Z" fill="white"/>
<path d="M80.62 73.8251C80.62 74.3378 80.4737 74.7773 80.1079 75.1435C79.7421 75.5096 79.3032 75.6561 78.7911 75.6561C78.279 75.6561 77.84 75.5096 77.4742 75.1435C77.1084 74.7773 76.9621 74.3378 76.9621 73.8251C76.9621 73.3125 77.1084 72.873 77.4742 72.5068C77.84 72.1406 78.279 71.9941 78.7911 71.9941C79.3032 71.9941 79.7421 72.1406 80.1079 72.5068C80.4737 72.7998 80.62 73.2392 80.62 73.8251ZM80.2542 78.7322V96.2364H77.4742V78.7322H80.2542Z" fill="white"/>
<path d="M86.9116 72.2139V96.2364H84.1316V72.2139H86.9116Z" fill="white"/>
<path d="M93.4958 72.2139V96.2364H90.7158V72.2139H93.4958Z" fill="white"/>
<path d="M113.687 96.2366H112.151C111.054 96.2366 110.249 96.0169 109.737 95.5775C109.225 95.138 109.005 94.4789 109.005 93.5268C107.688 95.5042 105.713 96.4564 103.153 96.4564C101.177 96.4564 99.6411 96.0169 98.4705 95.0648C97.3 94.1859 96.7148 92.8676 96.7148 91.3296C96.7148 89.5719 97.3 88.2535 98.5437 87.3014C99.7142 86.3493 101.47 85.9099 103.738 85.9099H108.859V84.738C108.859 83.5662 108.493 82.6873 107.688 82.0282C106.957 81.369 105.859 81.0761 104.469 81.0761C103.226 81.0761 102.275 81.369 101.47 81.8817C100.665 82.3944 100.226 83.1268 100.007 84.0057H97.3C97.5195 82.3211 98.2511 80.9296 99.5679 79.9775C100.885 79.0254 102.567 78.5127 104.689 78.5127C106.957 78.5127 108.639 79.0254 109.883 80.1239C111.127 81.2225 111.712 82.7606 111.712 84.8113V92.3549C111.712 93.2338 112.078 93.6 112.883 93.6H113.761V96.2366H113.687ZM103.445 88.2535C100.812 88.2535 99.5679 89.2056 99.5679 91.1831C99.5679 92.062 99.9337 92.7211 100.592 93.307C101.251 93.8197 102.202 94.1127 103.372 94.1127C105.055 94.1127 106.445 93.6733 107.396 92.7944C108.347 91.9155 108.859 90.6704 108.859 89.2056V88.3268H103.445V88.2535Z" fill="white"/>
<path d="M119.467 93.0141C120.345 93.6733 121.515 94.0394 122.905 94.0394C124.149 94.0394 125.173 93.8197 125.905 93.307C126.636 92.7944 127.075 92.1352 127.075 91.4028C127.075 90.7437 126.929 90.1578 126.563 89.7916C126.197 89.4254 125.758 89.2056 125.173 89.0592C124.588 88.9127 123.783 88.7662 122.686 88.6197C121.149 88.4 119.979 88.1803 118.955 87.8873C117.931 87.5944 117.199 87.0817 116.614 86.4958C116.028 85.8366 115.736 84.9578 115.736 83.7859C115.736 82.7606 116.028 81.8085 116.614 81.0761C117.199 80.2704 118.004 79.6845 119.028 79.1718C120.052 78.6592 121.149 78.5127 122.393 78.5127C124.442 78.5127 126.124 79.0254 127.441 79.9775C128.758 80.9296 129.416 82.3211 129.563 84.0789H126.783C126.636 83.2 126.197 82.3944 125.466 81.8085C124.661 81.2226 123.71 80.9296 122.539 80.9296C121.369 80.9296 120.418 81.1493 119.686 81.662C118.955 82.1747 118.589 82.8338 118.589 83.5662C118.589 84.1521 118.735 84.5916 119.101 84.9578C119.467 85.2507 119.906 85.4704 120.418 85.6169C120.93 85.7634 121.735 85.8366 122.832 85.9831C124.368 86.2028 125.612 86.4225 126.636 86.7155C127.661 87.0085 128.465 87.5211 129.051 88.2535C129.636 88.9859 129.928 89.938 129.928 91.1099C129.928 92.1352 129.636 93.0873 128.977 93.893C128.392 94.6986 127.514 95.2845 126.49 95.724C125.466 96.1634 124.295 96.3831 122.978 96.3831C120.711 96.3831 118.882 95.8704 117.492 94.7718C116.102 93.7465 115.443 92.2817 115.37 90.3775H118.15C118.077 91.5493 118.589 92.3549 119.467 93.0141Z" fill="white"/>
<path d="M152.022 76.0956C151.803 76.3885 151.437 76.535 150.998 76.535C150.632 76.535 150.339 76.3885 150.047 76.1688C149.827 75.9491 149.681 75.6561 149.681 75.2899C149.681 75.0702 149.754 74.704 149.974 74.1181C149.974 73.9716 149.901 73.8252 149.754 73.7519C149.608 73.6787 149.462 73.6054 149.315 73.6054C148.511 73.6054 147.779 74.4843 147.194 76.3153C146.901 77.3407 146.535 79.0984 146.096 81.5885H149.827L149.608 82.6871H145.804L142.585 93.5998C141.926 96.4561 140.975 98.7998 139.878 100.631C138.707 102.389 137.244 103.341 135.488 103.341C134.684 103.341 134.025 103.121 133.513 102.682C133.001 102.242 132.708 101.729 132.708 101.217C132.708 100.851 132.782 100.558 133.001 100.265C133.221 99.9716 133.513 99.8251 133.952 99.8251C134.318 99.8251 134.684 99.9716 134.903 100.191C135.196 100.411 135.269 100.777 135.269 101.143C135.269 101.363 135.196 101.583 135.123 101.729C134.976 101.949 134.976 102.096 134.976 102.169C134.976 102.242 135.049 102.389 135.196 102.389C135.342 102.462 135.488 102.462 135.708 102.462C136.659 102.462 137.464 101.729 138.122 100.191C138.488 99.3857 138.781 98.3604 139.073 96.9688L143.024 82.6139H139.951L140.171 81.5153H143.389C143.975 78.8787 144.706 76.9745 145.438 75.7294C146.535 73.8252 147.925 72.873 149.608 72.873C150.339 72.873 150.998 73.0928 151.51 73.5322C152.022 73.9716 152.242 74.4843 152.242 74.997C152.388 75.4364 152.315 75.8026 152.022 76.0956Z" fill="white"/>
<path d="M162.264 82.541C163.069 83.5663 163.435 84.7381 163.435 86.0564C163.435 88.4001 162.411 90.7438 160.289 93.0142C158.167 95.3579 155.826 96.5297 153.412 96.5297C151.876 96.5297 150.632 96.0902 149.681 95.2114C148.73 94.3325 148.291 93.0874 148.291 91.4762C148.291 89.0593 149.315 86.7156 151.437 84.4452C153.558 82.1747 155.826 81.0029 158.314 81.0029C160.216 81.0029 161.533 81.5156 162.264 82.541ZM151.876 94.9184C152.315 95.5043 153.046 95.7973 153.924 95.7973C155.753 95.7973 157.363 94.4058 158.753 91.6959C159.923 89.3522 160.508 87.155 160.508 85.1776C160.508 84.3719 160.435 83.6395 160.216 83.1269C159.85 82.1748 159.118 81.6621 158.094 81.6621C156.412 81.6621 154.802 82.9072 153.266 85.4705C151.876 87.8874 151.144 90.2311 151.144 92.5015C151.217 93.5269 151.437 94.3325 151.876 94.9184Z" fill="white"/>
<path d="M171.775 81.0762C171.848 81.1494 171.848 81.2226 171.848 81.2959C171.848 81.4424 171.848 81.5156 171.848 81.5156L170.165 88.0339L170.531 87.2283C171.336 85.617 172.287 84.2255 173.384 82.9072C174.482 81.5889 175.506 80.9297 176.457 80.9297C176.969 80.9297 177.408 81.0762 177.701 81.4424C177.993 81.8086 178.139 82.1748 178.139 82.6142C178.139 83.1269 177.993 83.5663 177.701 83.8593C177.408 84.2255 177.042 84.372 176.53 84.372C176.164 84.372 175.945 84.2987 175.725 84.1522C175.579 84.0057 175.433 83.8593 175.286 83.7128L175.067 83.3466C174.994 83.2733 174.994 83.2001 174.921 83.2001C174.847 83.1269 174.774 83.1269 174.701 83.1269C174.262 83.1269 173.604 83.7128 172.799 84.9579C171.994 86.2029 171.263 87.5212 170.604 88.9128C170.238 89.7917 169.799 90.8903 169.287 92.355C168.995 93.2339 168.556 94.5522 168.044 96.1635H165.483L168.263 86.0565C168.409 85.4705 168.556 84.9579 168.629 84.5184C168.702 84.079 168.775 83.7128 168.775 83.4198C168.775 83.0536 168.702 82.8339 168.556 82.6142C168.409 82.4677 168.117 82.3212 167.678 82.3212C167.532 82.3212 167.385 82.3212 167.166 82.3212C166.946 82.3212 166.727 82.3945 166.434 82.3945V81.8086L167.093 81.6621C167.971 81.5156 168.922 81.2959 169.946 81.0762C170.97 80.8565 171.555 80.7832 171.555 80.7832C171.628 81.0029 171.702 81.0029 171.775 81.0762Z" fill="white"/>
<path d="M186.699 72.2139V96.2364H183.919V72.2139H186.699Z" fill="white"/>
<path d="M193.795 73.8251C193.795 74.3378 193.649 74.7773 193.283 75.1435C192.917 75.5096 192.478 75.6561 191.966 75.6561C191.454 75.6561 191.015 75.5096 190.649 75.1435C190.284 74.7773 190.137 74.3378 190.137 73.8251C190.137 73.3125 190.284 72.873 190.649 72.5068C191.015 72.1406 191.454 71.9941 191.966 71.9941C192.478 71.9941 192.917 72.1406 193.283 72.5068C193.576 72.7998 193.795 73.2392 193.795 73.8251ZM193.356 78.7322V96.2364H190.576V78.7322H193.356Z" fill="white"/>
<path d="M198.404 76.7547C198.404 75.2167 198.77 74.0449 199.502 73.3125C200.233 72.5801 201.404 72.2139 203.013 72.2139H206.232V74.7772H203.16C202.501 74.7772 201.989 74.9237 201.696 75.2167C201.404 75.5096 201.257 76.0223 201.257 76.6815V78.7322H206.159V81.2956H201.184V96.2364H198.404V81.2956H195.258V78.7322H198.404V76.7547Z" fill="white"/>
<path d="M210.548 79.6113C211.792 78.8789 213.255 78.5127 214.865 78.5127C216.474 78.5127 217.864 78.8789 219.108 79.538C220.352 80.1972 221.303 81.1493 222.034 82.3944C222.766 83.6394 223.132 85.1042 223.132 86.7887C223.132 87.0085 223.132 87.4479 223.058 87.9606H209.524V88.1803C209.597 89.8648 210.109 91.2563 211.134 92.2817C212.158 93.3071 213.475 93.8197 215.084 93.8197C216.328 93.8197 217.425 93.5268 218.303 92.8676C219.181 92.2085 219.766 91.3296 220.059 90.231H222.912C222.546 91.9888 221.742 93.4535 220.352 94.6254C218.962 95.724 217.279 96.3099 215.304 96.3099C213.548 96.3099 212.085 95.9437 210.768 95.2113C209.451 94.4789 208.427 93.3803 207.768 92.062C207.037 90.6704 206.671 89.1324 206.671 87.3747C206.671 85.6169 207.037 84.0056 207.695 82.6873C208.354 81.4423 209.305 80.4169 210.548 79.6113ZM218.596 82.2479C217.645 81.4423 216.401 81.0028 214.938 81.0028C213.621 81.0028 212.451 81.4423 211.426 82.3211C210.402 83.2 209.817 84.2986 209.744 85.6902H220.278C220.132 84.2254 219.547 83.0535 218.596 82.2479Z" fill="white"/>
</g>
<defs>
<clipPath id="clip0_107_16174">
<rect width="278" height="104" fill="white"/>
</clipPath>
</defs>
</svg>
