<svg width="270" height="239" viewBox="0 0 270 239" fill="none" xmlns="http://www.w3.org/2000/svg">
<path d="M17.5428 43.6531C29.17 24.0704 46.3048 9.58736 68.5394 0L70.3753 3.26379C59.156 9.58737 49.7726 16.9309 42.2251 25.4983C34.6776 34.0657 28.7621 45.489 24.2744 60.176C19.7867 74.863 17.7468 93.4257 17.7468 115.864C17.7468 148.298 22.6425 173.184 32.2298 190.931C41.8172 208.678 54.6683 221.937 70.3753 231.117L68.5394 234.584C47.5288 225.201 31.0059 210.106 18.5627 189.299C6.11954 168.493 0 144.014 0 115.864C0 87.1022 5.91555 63.0318 17.5428 43.6531Z" fill="white"/>
<path d="M209.29 164.82C209.29 176.04 206.23 185.831 200.314 194.602C194.399 203.17 185.627 209.901 174.408 214.797C163.189 219.693 149.93 221.936 134.835 221.936C119.74 221.936 106.481 219.489 95.2615 214.797C84.0422 209.901 75.4749 203.374 69.3553 194.602C63.4397 186.035 60.3798 176.04 60.3798 164.82C60.3798 151.357 64.6636 140.138 73.027 131.163C81.3904 122.187 92.4057 116.272 105.869 113.416C94.2416 110.968 84.8582 105.664 77.3107 97.3008C69.7632 88.9374 66.0915 78.7381 66.0915 66.9069C66.0915 56.0956 68.9473 46.7122 74.4549 38.3488C79.9626 29.9853 88.122 23.6618 98.3213 19.1741C108.725 14.4824 120.76 12.2385 134.427 12.2385C148.094 12.2385 160.129 14.4824 170.532 19.1741C180.936 23.8658 188.891 30.1893 194.399 38.3488C199.906 46.5082 202.762 56.0956 202.762 66.9069C202.762 78.7381 199.091 88.7334 191.543 97.3008C183.996 105.868 174.612 111.172 162.985 113.416C176.448 116.068 187.463 121.983 195.827 130.959C205.21 139.934 209.29 151.153 209.29 164.82ZM184.608 164.004C184.608 156.661 182.364 150.133 178.08 144.218C173.796 138.302 167.881 133.814 160.333 130.347C152.786 127.083 144.218 125.451 134.835 125.451C125.451 125.451 116.884 127.083 109.337 130.347C101.789 133.61 95.8735 138.302 91.5898 144.218C87.3061 150.133 85.0622 156.661 85.0622 164.004C85.0622 175.02 89.7539 183.995 99.1372 191.135C108.521 198.274 120.352 201.742 134.631 201.742C149.114 201.742 160.945 198.274 170.329 191.135C180.12 183.995 184.608 175.02 184.608 164.004ZM135.039 101.381C147.89 101.381 158.497 98.1168 166.861 91.7932C175.02 85.4696 179.304 77.1062 179.304 66.9069C179.304 56.9115 175.224 48.7521 166.861 42.4285C158.701 36.1049 148.094 32.8412 135.039 32.8412C122.188 32.8412 111.58 36.1049 103.217 42.4285C95.0575 48.7521 90.7738 56.9115 90.7738 66.9069C90.7738 77.1062 94.8535 85.4696 103.217 91.7932C111.58 98.1168 121.984 101.381 135.039 101.381Z" fill="white"/>
<path d="M269.874 119.332C269.874 147.482 263.754 171.961 251.311 192.767C238.868 213.574 222.345 228.669 201.335 238.052L199.499 234.584C215.41 225.609 228.057 212.146 237.644 194.399C247.231 176.652 252.127 151.562 252.127 119.332C252.127 96.8936 249.883 78.1268 245.6 63.6437C241.112 48.9567 235.196 37.5335 227.649 28.9661C220.101 20.3986 210.718 13.0551 199.499 6.73157L201.335 3.46777C223.773 13.0551 240.704 27.5381 252.331 47.1208C264.162 66.7035 269.874 90.774 269.874 119.332Z" fill="white"/>
</svg>
