<svg width="60" height="53" viewBox="0 0 60 53" fill="none" xmlns="http://www.w3.org/2000/svg">
<path d="M3.90022 9.70522C6.48525 5.35148 10.2948 2.13152 15.2381 0L15.6463 0.725626C13.1519 2.13152 11.0658 3.76417 9.38775 5.66894C7.70974 7.5737 6.39456 10.1134 5.39682 13.3787C4.39909 16.644 3.94557 20.771 3.94557 25.7596C3.94557 32.9705 5.03401 38.5034 7.16553 42.449C9.29705 46.3946 12.1542 49.3424 15.6463 51.3832L15.2381 52.1542C10.5669 50.068 6.89341 46.712 4.12697 42.0862C1.36053 37.4603 0 32.0181 0 25.7596C0 19.3651 1.31518 14.0136 3.90022 9.70522Z" fill="black"/>
<path d="M46.5306 36.6436C46.5306 39.1379 45.8503 41.3148 44.5351 43.2649C43.2199 45.1697 41.2698 46.6663 38.7755 47.7547C36.2812 48.8432 33.3333 49.342 29.9773 49.342C26.6213 49.342 23.6735 48.7978 21.1791 47.7547C18.6848 46.6663 16.78 45.215 15.4195 43.2649C14.1043 41.3602 13.424 39.1379 13.424 36.6436C13.424 33.6504 14.3764 31.1561 16.2358 29.1606C18.0952 27.1652 20.5442 25.85 23.5374 25.215C20.9524 24.6708 18.8662 23.4917 17.1882 21.6323C15.5102 19.7729 14.6939 17.5053 14.6939 14.8749C14.6939 12.4713 15.3288 10.3851 16.5533 8.52569C17.7778 6.66628 19.5918 5.26039 21.8594 4.26266C24.1723 3.21957 26.8481 2.7207 29.8866 2.7207C32.9252 2.7207 35.6009 3.21957 37.9138 4.26266C40.2267 5.30574 41.9955 6.71164 43.2199 8.52569C44.4444 10.3398 45.0794 12.4713 45.0794 14.8749C45.0794 17.5053 44.263 19.7275 42.585 21.6323C40.907 23.537 38.8209 24.7162 36.2358 25.215C39.229 25.8046 41.678 27.1198 43.5374 29.1153C45.6236 31.1107 46.5306 33.6051 46.5306 36.6436ZM41.0431 36.4622C41.0431 34.8296 40.5442 33.3783 39.5918 32.0631C38.6394 30.7479 37.3242 29.7502 35.6462 28.9792C33.9682 28.2536 32.0635 27.8908 29.9773 27.8908C27.8911 27.8908 25.9864 28.2536 24.3084 28.9792C22.6304 29.7048 21.3152 30.7479 20.3628 32.0631C19.4104 33.3783 18.9115 34.8296 18.9115 36.4622C18.9115 38.9112 19.9546 40.9067 22.0408 42.494C24.127 44.0813 26.7574 44.8522 29.932 44.8522C33.1519 44.8522 35.7823 44.0813 37.8685 42.494C40.0453 40.9067 41.0431 38.9112 41.0431 36.4622ZM30.0227 22.5393C32.8798 22.5393 35.2381 21.8137 37.0975 20.4078C38.9116 19.0019 39.8639 17.1425 39.8639 14.8749C39.8639 12.6527 38.9569 10.8386 37.0975 9.43272C35.2834 8.02683 32.9252 7.30121 30.0227 7.30121C27.1655 7.30121 24.8072 8.02683 22.9478 9.43272C21.1338 10.8386 20.1814 12.6527 20.1814 14.8749C20.1814 17.1425 21.0884 19.0019 22.9478 20.4078C24.8072 21.8137 27.1202 22.5393 30.0227 22.5393Z" fill="black"/>
<path d="M60 26.5311C60 32.7896 58.6394 38.2318 55.873 42.8577C53.1066 47.4835 49.4331 50.8395 44.7619 52.9257L44.3537 52.1547C47.8911 50.1593 50.7029 47.1661 52.8345 43.2205C54.966 39.2749 56.0544 33.6967 56.0544 26.5311C56.0544 21.5425 55.5555 17.3701 54.6032 14.1502C53.6054 10.8849 52.2902 8.34518 50.6122 6.44042C48.9342 4.53566 46.8481 2.90301 44.3537 1.49711L44.7619 0.771484C49.7506 2.903 53.5147 6.12296 56.0998 10.4767C58.7301 14.8304 60 20.1819 60 26.5311Z" fill="black"/>
</svg>
