<svg width="172" height="21" viewBox="0 0 172 21" fill="none" xmlns="http://www.w3.org/2000/svg">
<path d="M10.9 1.00018C11.9 1.50018 12.7 2.20019 13.2 3.10019C13.7 4.00019 14 5.1002 14 6.3002C14 7.5002 13.7 8.60018 13.2 9.50018C12.7 10.4002 11.9 11.1002 10.9 11.6002C9.90002 12.1002 8.8 12.3002 7.5 12.3002H2.40002V19.8002H0V0.200195H7.5C8.8 0.300195 9.90002 0.500183 10.9 1.00018ZM7.30002 10.1002C8.60002 10.1002 9.60002 9.80019 10.4 9.10019C11.2 8.40019 11.5 7.5002 11.5 6.3002C11.5 5.1002 11.1 4.20018 10.4 3.50018C9.60002 2.80018 8.60002 2.50018 7.30002 2.50018H2.40002V10.1002H7.30002Z" fill="black"/>
<path d="M28.8 19.9004H27.5C26.6 19.9004 25.9 19.7004 25.5 19.3004C25.1 18.9004 24.9 18.4004 24.9 17.6004C23.8 19.2004 22.2 20.0004 20.1 20.0004C18.5 20.0004 17.2 19.6004 16.3 18.9004C15.3 18.2004 14.9 17.1004 14.9 15.8004C14.9 14.4004 15.4 13.3004 16.4 12.5004C17.4 11.7004 18.8 11.4004 20.7 11.4004H24.9V10.4004C24.9 9.50039 24.6 8.70038 24 8.20038C23.4 7.70038 22.5 7.40039 21.4 7.40039C20.4 7.40039 19.6 7.60037 19 8.10037C18.4 8.50037 18 9.10039 17.8 9.90039H15.5C15.7 8.50039 16.3 7.40037 17.4 6.60037C18.5 5.80037 19.9 5.40039 21.6 5.40039C23.4 5.40039 24.8 5.80038 25.8 6.70038C26.8 7.60038 27.3 8.90037 27.3 10.5004V16.7004C27.3 17.4004 27.6 17.7004 28.3 17.7004H29V19.9004H28.8ZM20.4 13.3004C18.3 13.3004 17.2 14.1004 17.2 15.7004C17.2 16.4004 17.5 17.0004 18 17.4004C18.6 17.8004 19.3 18.0004 20.3 18.0004C21.7 18.0004 22.8 17.6004 23.6 16.9004C24.4 16.2004 24.8 15.2004 24.8 14.0004V13.3004H20.4Z" fill="black"/>
<path d="M32.9001 0.300293V19.9003H30.6V0.300293H32.9001Z" fill="black"/>
<path d="M49.3 19.9004H48C47.1 19.9004 46.4 19.7004 46 19.3004C45.6 18.9004 45.4 18.4004 45.4 17.6004C44.3 19.2004 42.7 20.0004 40.6 20.0004C39 20.0004 37.7 19.6004 36.8 18.9004C35.8 18.2004 35.4 17.1004 35.4 15.8004C35.4 14.4004 35.9 13.3004 36.9 12.5004C37.9 11.7004 39.3 11.4004 41.2 11.4004H45.4V10.4004C45.4 9.50039 45.1 8.70038 44.5 8.20038C43.9 7.70038 43 7.40039 41.9 7.40039C40.9 7.40039 40.1 7.60037 39.5 8.10037C38.9 8.50037 38.5 9.10039 38.3 9.90039H36C36.2 8.50039 36.8 7.40037 37.9 6.60037C39 5.80037 40.4 5.40039 42.1 5.40039C43.9 5.40039 45.3 5.80038 46.3 6.70038C47.3 7.60038 47.8 8.90037 47.8 10.5004V16.7004C47.8 17.4004 48.1 17.7004 48.8 17.7004H49.5V19.9004H49.3ZM41 13.3004C38.9 13.3004 37.8 14.1004 37.8 15.7004C37.8 16.4004 38.1 17.0004 38.6 17.4004C39.2 17.8004 39.9 18.0004 40.9 18.0004C42.3 18.0004 43.4 17.6004 44.2 16.9004C45 16.2004 45.4 15.2004 45.4 14.0004V13.3004H41Z" fill="black"/>
<path d="M53.7 1.5C53.7 1.9 53.6 2.30001 53.3 2.60001C53 2.90001 52.7 3 52.2 3C51.8 3 51.4 2.90001 51.1 2.60001C50.8 2.30001 50.7 2 50.7 1.5C50.7 1.1 50.8 0.700024 51.1 0.400024C51.4 0.100024 51.7 0 52.2 0C52.6 0 53 0.100024 53.3 0.400024C53.6 0.800024 53.7 1.1 53.7 1.5ZM53.4 5.60001V19.9H51.1V5.60001H53.4Z" fill="black"/>
<path d="M63.8 7.80011H62.7C61.3 7.80011 60.4 8.3001 59.8 9.2001C59.2 10.1001 58.9001 11.2001 58.9001 12.6001V19.9001H56.6V5.6001H58.6L58.9001 7.80011C59.3001 7.10011 59.8 6.6001 60.5 6.2001C61.2 5.8001 62.1 5.6001 63.2 5.6001H63.8V7.80011Z" fill="black"/>
<path d="M65.5 16.5004C64.9 15.4004 64.6 14.1004 64.6 12.7004C64.6 11.3004 64.9 10.0004 65.5 8.90039C66.1 7.80039 66.9 6.90038 68 6.30038C69.1 5.70038 70.3 5.40039 71.7 5.40039C73.1 5.40039 74.3001 5.70038 75.4001 6.30038C76.5001 6.90038 77.3001 7.80039 77.9001 8.90039C78.5001 10.0004 78.8 11.3004 78.8 12.7004C78.8 14.1004 78.5001 15.4004 77.9001 16.5004C77.3001 17.6004 76.5001 18.5004 75.4001 19.1004C74.3001 19.7004 73.1 20.0004 71.7 20.0004C70.3 20.0004 69.1 19.7004 68 19.1004C66.9 18.5004 66.1 17.6004 65.5 16.5004ZM75.8 15.4004C76.2 14.6004 76.4001 13.7004 76.4001 12.7004C76.4001 11.7004 76.2 10.8004 75.8 10.0004C75.4 9.20037 74.9 8.60037 74.1 8.10037C73.4 7.70037 72.6 7.40039 71.6 7.40039C70.7 7.40039 69.8 7.60037 69.1 8.10037C68.4 8.50037 67.8001 9.20037 67.4001 10.0004C67.0001 10.8004 66.8 11.7004 66.8 12.7004C66.8 13.7004 67.0001 14.6004 67.4001 15.4004C67.8001 16.2004 68.3 16.8004 69.1 17.3004C69.9 17.8004 70.6 18.0004 71.6 18.0004C72.5 18.0004 73.4 17.8004 74.1 17.3004C74.8 16.8004 75.4 16.2004 75.8 15.4004Z" fill="black"/>
<path d="M84.2 17.3C84.9 17.8 85.8 18.1 87 18.1C88 18.1 88.8 17.9 89.5 17.5C90.1 17.1 90.4 16.6 90.4 15.9C90.4 15.3 90.3 14.9 90 14.6C89.7 14.3 89.3 14.1 88.8 14C88.3 13.9 87.6 13.8 86.8 13.7C85.6 13.6 84.6 13.4 83.8 13.1C83 12.9 82.4 12.5 81.9 11.9C81.4 11.3 81.2 10.6 81.2 9.70001C81.2 8.90001 81.4 8.1 81.9 7.5C82.4 6.9 83 6.3 83.8 6C84.6 5.6 85.5 5.5 86.6 5.5C88.3 5.5 89.6 5.90001 90.7 6.70001C91.8 7.50001 92.3 8.60001 92.5 10.1H90.2C90.1 9.40001 89.7 8.70002 89.1 8.30002C88.5 7.90002 87.7 7.60001 86.7 7.60001C85.7 7.60001 84.9 7.80001 84.3 8.20001C83.7 8.60001 83.4 9.10002 83.4 9.80002C83.4 10.3 83.5 10.7 83.8 10.9C84.1 11.2 84.4 11.3 84.9 11.4C85.3 11.5 86 11.6 86.9 11.7C88.2 11.8 89.2 12.1 90 12.3C90.8 12.6 91.5 13 92 13.6C92.5 14.2 92.7 15 92.7 16C92.7 16.9 92.4 17.6 91.9 18.3C91.4 19 90.7 19.5 89.9 19.8C89.1 20.1 88.1 20.3 87 20.3C85.1 20.3 83.6 19.9 82.5 19C81.4 18.1 80.8 16.9 80.8 15.4H83.1C83.2 16 83.5 16.7 84.2 17.3Z" fill="black"/>
<path d="M125.4 10.9004V12.8004H102.5V10.9004H125.4Z" fill="black"/>
<path d="M139.8 1.30011C141.2 0.50011 142.9 0.100098 144.7 0.100098C146.9 0.100098 148.7 0.700116 150.1 1.90012C151.6 3.10012 152.5 4.7001 152.9 6.7001H150.5C150.1 5.3001 149.4 4.30009 148.4 3.50009C147.4 2.70009 146.1 2.40012 144.6 2.40012C143.3 2.40012 142.1 2.70012 141 3.40012C139.9 4.10012 139.2 5.0001 138.6 6.1001C138 7.3001 137.8 8.6001 137.8 10.1001C137.8 11.6001 138.1 12.9001 138.6 14.1001C139.2 15.3001 140 16.2001 141 16.8001C142 17.5001 143.2 17.8001 144.5 17.8001C145.7 17.8001 146.8 17.6001 147.7 17.1001C148.6 16.6001 149.4 16.0001 149.9 15.1001C150.4 14.2001 150.7 13.3001 150.7 12.1001V11.4001H144.8V9.2001H153.1V19.8001H151.1L150.8 16.7001C150.3 17.6001 149.4 18.3001 148.4 19.0001C147.3 19.7001 146 20.0001 144.5 20.0001C142.7 20.0001 141.1 19.6001 139.7 18.7001C138.3 17.9001 137.2 16.7001 136.4 15.2001C135.6 13.7001 135.2 12.0001 135.2 10.0001C135.2 8.00009 135.6 6.30011 136.3 4.80011C137 3.30011 138.4 2.20011 139.8 1.30011Z" fill="black"/>
<path d="M167.9 1.00018C168.9 1.50018 169.7 2.20019 170.2 3.10019C170.7 4.00019 171 5.1002 171 6.3002C171 7.7002 170.6 8.8002 169.9 9.8002C169.1 10.8002 168.1 11.5002 166.9 11.8002L171.3 19.8002H168.6L164.5 12.3002H159.5V19.8002H157.1V0.200195H164.6C165.8 0.300195 166.9 0.500183 167.9 1.00018ZM164.3 10.1002C165.6 10.1002 166.6 9.80019 167.4 9.10019C168.2 8.40019 168.5 7.5002 168.5 6.3002C168.5 5.2002 168.1 4.20019 167.4 3.60019C166.6 2.90019 165.6 2.60019 164.3 2.60019H159.4V10.2002H164.3V10.1002Z" fill="black"/>
</svg>
