<svg width="40" height="40" viewBox="0 0 40 40" fill="none" xmlns="http://www.w3.org/2000/svg">
<g clip-path="url(#clip0_37_1573)">
<path d="M32.4562 20.6252L0.625 20.5996C0.45924 20.5996 0.300268 20.5338 0.183058 20.4166C0.065848 20.2993 0 20.1404 0 19.9746C0 19.8088 0.065848 19.6499 0.183058 19.5327C0.300268 19.4155 0.45924 19.3496 0.625 19.3496L32.4569 19.3752C32.6226 19.3752 32.7816 19.4411 32.8988 19.5583C33.016 19.6755 33.0819 19.8345 33.0819 20.0002C33.0819 20.166 33.016 20.325 32.8988 20.4422C32.7816 20.5594 32.622 20.6252 32.4562 20.6252Z" fill="white"/>
<path d="M40 20.0073C36.4494 21.3198 32.0431 23.5648 29.3125 25.9448L31.4662 19.9998L29.3206 14.0542C32.0487 16.4373 36.4512 18.6873 40 20.0073Z" fill="white"/>
</g>
<defs>
<clipPath id="clip0_37_1573">
<rect width="40" height="40" fill="white"/>
</clipPath>
</defs>
</svg>
