<svg width="140" height="33" viewBox="0 0 140 33" fill="none" xmlns="http://www.w3.org/2000/svg">
<g clip-path="url(#clip0_1_114)">
<path d="M0.0551147 9.86614V7.16535H3.30708V2.09448H6.22833V7.16535H10.8031V9.81102H6.22833V20.559C6.22833 21.3307 6.3937 21.8819 6.66929 22.1575C6.94488 22.4882 7.49605 22.6535 8.21259 22.6535H11.4094V25.2992H8.04724C6.33858 25.2992 5.12598 24.9134 4.40944 24.1417C3.69291 23.3701 3.30708 22.1575 3.30708 20.559V9.81102H0.0551147V9.86614Z" fill="white"/>
<path d="M29.7638 15.2126V25.3543H26.8425V15.4331C26.8425 13.559 26.4016 12.126 25.5748 11.1338C24.6929 10.1417 23.4803 9.64565 21.8819 9.64565C20.1732 9.64565 18.8504 10.252 17.8583 11.4094C16.8661 12.622 16.3701 14.2205 16.3701 16.2598V25.3543H13.4488V0.440918H16.3701V10.1968C16.9764 9.25982 17.748 8.48816 18.7402 7.88186C19.7323 7.27556 20.9449 6.99999 22.378 6.99999C24.5827 6.99999 26.3465 7.66139 27.7244 8.98423C29.0472 10.3071 29.7638 12.3464 29.7638 15.2126Z" fill="white"/>
<path d="M36.1024 8.10237C37.4252 7.33072 38.9134 6.94489 40.5669 6.94489C42.2205 6.94489 43.7087 7.27559 44.9764 7.99213C46.2441 8.65354 47.2913 9.70078 48.0079 10.9685C48.7244 12.2913 49.1102 13.7795 49.1654 15.5433C49.1654 15.8189 49.1654 16.2047 49.1102 16.811H35V17.0866C35.0551 18.8504 35.6063 20.2835 36.6535 21.3858C37.7008 22.4331 39.0787 22.9843 40.7323 22.9843C42.0551 22.9843 43.1575 22.6535 44.0394 21.9921C44.9764 21.3307 45.5827 20.4488 45.8583 19.2913H48.8347C48.5039 21.1654 47.5669 22.6535 46.189 23.811C44.811 24.9685 42.9921 25.5748 40.9528 25.5748C39.1339 25.5748 37.5906 25.189 36.2126 24.4173C34.8347 23.6457 33.7874 22.5433 33.0709 21.1653C32.2992 19.7323 31.9685 18.1339 31.9685 16.315C31.9685 14.4409 32.3543 12.8425 33.0709 11.4095C33.7874 9.97638 34.7795 8.87402 36.1024 8.10237ZM44.4252 10.8032C43.4331 9.92126 42.1654 9.53543 40.6221 9.53543C39.2441 9.53543 38.0315 9.97637 36.9843 10.9134C35.937 11.7953 35.3307 13.0079 35.2205 14.441H46.189C46.0236 12.8425 45.4724 11.685 44.4252 10.8032Z" fill="white"/>
<path d="M54.0158 7.05509C55.4488 4.68501 57.4882 2.92124 60.189 1.76376L60.4095 2.14958C59.0315 2.92123 57.9291 3.80312 56.9921 4.85036C56.0551 5.89761 55.3386 7.27556 54.8425 9.03934C54.2913 10.8031 54.0158 13.063 54.0158 15.7638C54.0158 19.6771 54.6221 22.7086 55.7795 24.8582C56.937 27.0079 58.4803 28.6063 60.4095 29.7086L60.189 30.1496C57.6536 28.9921 55.6142 27.1732 54.126 24.6378C52.6378 22.1023 51.8661 19.126 51.8661 15.7086C51.8661 12.3464 52.5827 9.42517 54.0158 7.05509Z" fill="white"/>
<path d="M61.5669 8.10237C62.8898 7.33072 64.3779 6.94489 66.0315 6.94489C67.685 6.94489 69.1732 7.27559 70.4409 7.99213C71.7087 8.70866 72.7559 9.70078 73.4724 10.9685C74.189 12.2913 74.5748 13.7795 74.6299 15.5433C74.6299 15.8189 74.6299 16.2047 74.5748 16.811H60.4646V17.0866C60.5197 18.8504 61.0709 20.2835 62.1181 21.3858C63.1654 22.4331 64.5433 22.9843 66.1969 22.9843C67.5197 22.9843 68.622 22.6535 69.5039 21.9921C70.4409 21.3307 71.0472 20.4488 71.3228 19.2913H74.2992C73.9685 21.1654 73.0315 22.6535 71.6535 23.811C70.2205 24.9685 68.4567 25.5748 66.4173 25.5748C64.5984 25.5748 63.0551 25.189 61.6772 24.4173C60.2992 23.6457 59.252 22.5433 58.5354 21.1653C57.7638 19.7323 57.4331 18.1339 57.4331 16.315C57.4331 14.4409 57.8189 12.8425 58.5354 11.4095C59.252 9.97638 60.2992 8.87402 61.5669 8.10237ZM69.9449 10.8032C68.9527 9.92126 67.685 9.53543 66.1417 9.53543C64.7638 9.53543 63.5512 9.97637 62.5039 10.9134C61.4567 11.7953 60.8504 13.0079 60.7402 14.441H71.6535C71.5433 12.8425 70.937 11.685 69.9449 10.8032Z" fill="white"/>
<path d="M80.5275 2.03936C80.5275 2.59054 80.3622 3.03149 79.9764 3.41732C79.6457 3.74802 79.1496 3.9685 78.5984 3.9685C78.0472 3.9685 77.6063 3.80314 77.2205 3.41732C76.8898 3.08661 76.6693 2.59054 76.6693 2.03936C76.6693 1.48818 76.8346 1.04724 77.2205 0.661411C77.5512 0.330702 78.0472 0.110229 78.5984 0.110229C79.1496 0.110229 79.5905 0.275584 79.9764 0.661411C80.3071 1.04724 80.5275 1.48818 80.5275 2.03936ZM80.0866 7.16534V25.3543H77.1653V7.16534H80.0866Z" fill="white"/>
<path d="M100.26 25.6299C100.26 27.0079 99.874 28.1653 99.1575 29.2126C98.4409 30.2598 97.3937 31.0866 96.0157 31.6378C94.6378 32.2441 93.0394 32.5197 91.2205 32.5197C89.4016 32.5197 87.8031 32.2441 86.4252 31.6378C85.0472 31.0315 84 30.2598 83.2835 29.2126C82.5669 28.1653 82.1811 26.9527 82.1811 25.6299C82.1811 23.9764 82.6771 22.6535 83.7244 21.5512C84.7716 20.4488 86.0945 19.7323 87.6929 19.4016C86.3149 19.126 85.1575 18.4646 84.2205 17.4724C83.3386 16.4803 82.8425 15.2126 82.8425 13.7795C82.8425 12.4567 83.1732 11.2992 83.8346 10.3071C84.4961 9.31496 85.4882 8.5433 86.7559 7.99212C88.0236 7.44093 89.4567 7.16534 91.1102 7.16534C97.1181 7.16534 99.4331 11.2441 99.4331 13.7795C99.4331 17.0866 96.0157 19.126 94.6378 19.4016C96.2913 19.7323 97.6142 20.4488 98.6063 21.4961C99.7638 22.5984 100.26 23.9212 100.26 25.6299ZM97.2834 25.5197C97.2834 24.6378 97.0079 23.8661 96.5118 23.1496C96.0157 22.4331 95.2441 21.8819 94.3622 21.4961C93.4252 21.1102 92.4331 20.8897 91.2756 20.8897C90.1181 20.8897 89.126 21.1102 88.189 21.4961C87.252 21.8819 86.5354 22.4331 86.0394 23.1496C85.5433 23.8661 85.2677 24.6378 85.2677 25.5197C85.2677 26.8425 85.8189 27.9449 86.9764 28.7716C88.1338 29.6535 89.5669 30.0394 91.2756 30.0394C93.0394 30.0394 94.4724 29.5984 95.6299 28.7716C96.7323 27.9449 97.2834 26.8425 97.2834 25.5197ZM91.2756 17.9134C92.8189 17.9134 94.1417 17.5275 95.1338 16.7559C96.126 15.9842 96.622 14.9921 96.622 13.7244C96.622 12.5118 96.126 11.5197 95.1338 10.748C94.1417 9.97637 92.874 9.59054 91.2756 9.59054C89.7323 9.59054 88.4094 9.97637 87.4173 10.748C86.4252 11.5197 85.9291 12.5118 85.9291 13.7244C85.9291 14.937 86.4252 15.9842 87.4173 16.7559C88.4094 17.5275 89.6772 17.9134 91.2756 17.9134Z" fill="white"/>
<path d="M118.724 15.2126V25.3543H115.803V15.4331C115.803 13.559 115.362 12.126 114.535 11.1338C113.654 10.1417 112.441 9.64565 110.843 9.64565C109.134 9.64565 107.811 10.252 106.819 11.4094C105.827 12.622 105.331 14.2205 105.331 16.2598V25.3543H102.409V0.440918H105.331V10.1968C105.937 9.25982 106.709 8.48816 107.701 7.88186C108.693 7.27556 109.905 6.99999 111.339 6.99999C113.543 6.99999 115.307 7.66139 116.685 8.98423C118.008 10.3071 118.724 12.3464 118.724 15.2126Z" fill="white"/>
<path d="M120.157 9.86614V7.16535H123.409V2.09448H126.331V7.16535H130.906V9.81102H126.331V20.559C126.331 21.3307 126.496 21.8819 126.772 22.1575C127.047 22.4331 127.598 22.6535 128.315 22.6535H131.512V25.2992H128.15C126.441 25.2992 125.228 24.9134 124.512 24.1417C123.795 23.3701 123.409 22.1575 123.409 20.559V9.81102H120.157V9.86614Z" fill="white"/>
<path d="M139.89 16.2598C139.89 19.6771 139.118 22.6535 137.63 25.189C136.142 27.7244 134.102 29.5433 131.567 30.7008L131.346 30.2598C133.276 29.1575 134.819 27.559 135.976 25.4094C137.134 23.2598 137.74 20.2283 137.74 16.3149C137.74 13.559 137.465 11.3543 136.913 9.59052C136.362 7.82674 135.646 6.39367 134.764 5.40154C133.827 4.3543 132.724 3.47241 131.346 2.70076L131.567 2.31494C134.268 3.47242 136.307 5.23619 137.74 7.60627C139.173 9.86611 139.89 12.7874 139.89 16.2598Z" fill="white"/>
</g>
<defs>
<clipPath id="clip0_1_114">
<rect width="140" height="32.5197" fill="white"/>
</clipPath>
</defs>
</svg>